<svg xmlns="http://www.w3.org/2000/svg" width="512" height="512" viewBox="0 0 512 512"><circle cx="256" cy="256" r="256" fill="#1B1B21"></circle><g transform="translate(92.16 156.09756097560975) scale(1.9980487804878049)"><path d="M0 8 A8 8 0 0 1 8 0 L50 0 A27 27 0 0 1 50 54 L26 54 L26 92 A8 8 0 0 1 18 100 L8 100 A8 8 0 0 1 0 92 Z M26 18 L48 18 A11 11 0 0 1 48 40 L26 40 Z" fill="#2F6BEB" fill-rule="evenodd"></path><path d="M24 52 L52 52 L76.97 94.82 A6 6 0 0 1 74 100 L60 100 A6 6 0 0 1 50.8 94.9 Z" fill="#2F6BEB"></path><g transform="translate(92 0)"><path d="M0 0 L72 0 L72 26 L0 26 Z M0 74 L72 74 L72 100 L0 100 Z M42 26 L72 26 L30 74 L0 74 Z" fill="#CC2936"></path></g></g></svg>